<svg xmlns="http://www.w3.org/2000/svg" xmlns:xlink="http://www.w3.org/1999/xlink" width="512" zoomAndPan="magnify" viewBox="0 0 384 383.999986" height="512" preserveAspectRatio="xMidYMid meet" version="1.0"><defs><g/><clipPath id="ee6b81cd90"><rect x="0" width="341" y="0" height="158"/></clipPath></defs><g transform="matrix(1, 0, 0, 1, 21, 113)"><g clip-path="url(#ee6b81cd90)"><g fill="#ffffff" fill-opacity="1"><g transform="translate(0.336284, 124.285302)"><g><path d="M 74.40625 -71.375 C 74.40625 -61.84375 70.28125 -54.601562 62.03125 -49.65625 C 66.519531 -48 70.273438 -45.15625 73.296875 -41.125 C 76.328125 -37.09375 77.84375 -31.382812 77.84375 -24 C 77.84375 -16.613281 75.113281 -10.765625 69.65625 -6.453125 C 64.195312 -2.148438 56.378906 0 46.203125 0 L 13.75 0 C 12.195312 0 10.914062 -0.523438 9.90625 -1.578125 C 8.894531 -2.628906 8.390625 -4.03125 8.390625 -5.78125 L 8.390625 -93.796875 C 8.390625 -94.804688 8.550781 -95.46875 8.875 -95.78125 C 9.195312 -96.101562 9.859375 -96.265625 10.859375 -96.265625 L 42.21875 -96.265625 C 63.675781 -96.265625 74.40625 -87.96875 74.40625 -71.375 Z M 34.796875 -73.984375 L 34.796875 -55.96875 L 35.484375 -55.96875 C 44.285156 -55.96875 48.6875 -58.90625 48.6875 -64.78125 C 48.6875 -67.988281 47.835938 -70.320312 46.140625 -71.78125 C 44.441406 -73.25 41.625 -73.984375 37.6875 -73.984375 Z M 34.796875 -39.75 L 34.796875 -21.875 L 37.265625 -21.875 C 41.210938 -21.875 44.101562 -22.601562 45.9375 -24.0625 C 47.769531 -25.53125 48.6875 -27.867188 48.6875 -31.078125 C 48.6875 -34.285156 47.835938 -36.53125 46.140625 -37.8125 C 44.441406 -39.101562 41.625 -39.75 37.6875 -39.75 Z M 34.796875 -39.75 "/></g></g></g><g fill="#ffffff" fill-opacity="1"><g transform="translate(74.575189, 124.285302)"><g><path d="M 58.171875 -3.71875 C 52.398438 -0.320312 44.972656 1.375 35.890625 1.375 C 26.816406 1.375 19.160156 -1.71875 12.921875 -7.90625 C 6.691406 -14.09375 3.578125 -22.664062 3.578125 -33.625 C 3.578125 -44.582031 6.578125 -53.40625 12.578125 -60.09375 C 18.585938 -66.789062 26.175781 -70.140625 35.34375 -70.140625 C 44.507812 -70.140625 51.59375 -67.800781 56.59375 -63.125 C 61.59375 -58.445312 64.09375 -52.765625 64.09375 -46.078125 C 64.09375 -31.222656 55.566406 -23.796875 38.515625 -23.796875 L 29.015625 -23.796875 C 29.015625 -21.046875 29.769531 -19.140625 31.28125 -18.078125 C 32.800781 -17.023438 35.023438 -16.5 37.953125 -16.5 C 44.367188 -16.5 50.46875 -17.96875 56.25 -20.90625 C 56.34375 -21 56.753906 -20.359375 57.484375 -18.984375 C 59.679688 -15.035156 60.78125 -11.707031 60.78125 -9 C 60.78125 -6.300781 59.910156 -4.539062 58.171875 -3.71875 Z M 40.984375 -43.453125 C 40.984375 -47.304688 39.101562 -49.234375 35.34375 -49.234375 C 33.601562 -49.234375 32.113281 -48.707031 30.875 -47.65625 C 29.632812 -46.601562 29.015625 -45.066406 29.015625 -43.046875 L 29.015625 -38.78125 L 36.453125 -38.78125 C 39.472656 -38.78125 40.984375 -40.335938 40.984375 -43.453125 Z M 40.984375 -43.453125 "/></g></g></g><g fill="#ffffff" fill-opacity="1"><g transform="translate(133.965643, 124.285302)"><g><path d="M 28.75 -34.109375 C 28.75 -25.117188 32.140625 -20.625 38.921875 -20.625 C 43.316406 -20.625 46.984375 -21.5 49.921875 -23.25 C 51.296875 -23.25 52.414062 -20.882812 53.28125 -16.15625 C 54.15625 -11.4375 54.59375 -8.226562 54.59375 -6.53125 C 54.59375 -4.832031 54.363281 -3.707031 53.90625 -3.15625 C 49.050781 -0.132812 42.40625 1.375 33.96875 1.375 C 25.53125 1.375 18.351562 -1.765625 12.4375 -8.046875 C 6.53125 -14.328125 3.578125 -22.898438 3.578125 -33.765625 C 3.578125 -44.628906 6.488281 -53.40625 12.3125 -60.09375 C 18.132812 -66.789062 25.878906 -70.140625 35.546875 -70.140625 C 45.222656 -70.140625 51.941406 -67.800781 55.703125 -63.125 C 56.523438 -62.113281 56.9375 -60.625 56.9375 -58.65625 C 56.9375 -56.6875 56.570312 -54.28125 55.84375 -51.4375 C 54.1875 -45.570312 52.03125 -42.179688 49.375 -41.265625 C 49.007812 -41.171875 48.484375 -41.125 47.796875 -41.125 C 47.109375 -41.125 46.257812 -41.671875 45.25 -42.765625 C 41.675781 -46.347656 38.8125 -48.140625 36.65625 -48.140625 C 34.5 -48.140625 32.640625 -47.035156 31.078125 -44.828125 C 29.523438 -42.628906 28.75 -39.054688 28.75 -34.109375 Z M 28.75 -34.109375 "/></g></g></g><g fill="#ffffff" fill-opacity="1"><g transform="translate(184.832006, 124.285302)"><g><path d="M 6.1875 -95.171875 C 6.1875 -96.640625 10.359375 -97.375 18.703125 -97.375 C 26.492188 -97.09375 30.390625 -96.492188 30.390625 -95.578125 L 30.390625 -42.765625 L 44.015625 -67.9375 C 44.648438 -69.3125 48.539062 -70 55.6875 -70 C 62.84375 -70 67.429688 -69.539062 69.453125 -68.625 L 51.578125 -39.46875 L 72.203125 -0.828125 C 72.390625 -0.460938 70.671875 -0.164062 67.046875 0.0625 C 63.421875 0.289062 60.414062 0.40625 58.03125 0.40625 C 49.226562 0.40625 44.507812 -0.00390625 43.875 -0.828125 L 30.25 -31.359375 L 30.25 -0.96875 C 30.25 0.226562 26.238281 0.828125 18.21875 0.828125 C 10.195312 0.828125 6.1875 0.273438 6.1875 -0.828125 Z M 6.1875 -95.171875 "/></g></g></g><g fill="#ffffff" fill-opacity="1"><g transform="translate(246.971176, 124.285302)"><g><path d="M 12.171875 -8.109375 C 6.441406 -14.441406 3.578125 -23.195312 3.578125 -34.375 C 3.578125 -45.5625 6.441406 -54.316406 12.171875 -60.640625 C 17.898438 -66.972656 25.625 -70.140625 35.34375 -70.140625 C 45.0625 -70.140625 52.765625 -66.972656 58.453125 -60.640625 C 64.140625 -54.316406 66.984375 -45.5625 66.984375 -34.375 C 66.984375 -23.195312 64.140625 -14.441406 58.453125 -8.109375 C 52.765625 -1.785156 45.0625 1.375 35.34375 1.375 C 25.625 1.375 17.898438 -1.785156 12.171875 -8.109375 Z M 35.40625 -47.171875 C 30.226562 -47.171875 27.640625 -42.953125 27.640625 -34.515625 C 27.640625 -26.085938 30.226562 -21.875 35.40625 -21.875 C 40.59375 -21.875 43.1875 -26.085938 43.1875 -34.515625 C 43.1875 -42.953125 40.59375 -47.171875 35.40625 -47.171875 Z M 35.40625 -47.171875 "/></g></g></g><g fill="#55cce1" fill-opacity="1"><g transform="translate(310.107695, 124.285302)"><g><path d="M 28.75 0.40625 C 28.75 1.050781 24.414062 1.375 15.75 1.375 C 7.082031 1.375 2.75 1.097656 2.75 0.546875 L 2.75 -24.203125 C 2.75 -25.023438 7.082031 -25.4375 15.75 -25.4375 C 24.414062 -25.4375 28.75 -25.207031 28.75 -24.75 Z M 28.75 0.40625 "/></g></g></g></g></g></svg>