<svg xmlns="http://www.w3.org/2000/svg" viewBox="0 0 64 64">
  <defs>
    <linearGradient id="g" x1="0%" y1="0%" x2="100%" y2="100%">
      <stop offset="0%" stop-color="#55CCE1" />
      <stop offset="100%" stop-color="#2BB1C7" />
    </linearGradient>
  </defs>
  <rect width="64" height="64" rx="16" fill="#07131D" />
  <rect x="8" y="8" width="48" height="48" rx="12" fill="url(#g)" />
  <path
    d="M24 18h10.8c6.4 0 10.2 3 10.2 8.2 0 3.4-1.8 5.7-4.8 6.9 3.8 1.1 6 3.8 6 7.6 0 5.8-4.2 9.3-11.2 9.3H24V18Zm10 12c2.7 0 4.2-1.2 4.2-3.4 0-2.1-1.5-3.2-4.2-3.2h-3.4V30H34Zm1 14.8c3 0 4.7-1.3 4.7-3.8 0-2.4-1.7-3.6-4.7-3.6h-4.4v7.4H35Z"
    fill="#04121A"
  />
</svg>
